<?xml version="1.0" encoding="utf-8"?>
<!-- Generator: Adobe Illustrator 24.0.3, SVG Export Plug-In . SVG Version: 6.00 Build 0)  -->
<svg version="1.1" xmlns="http://www.w3.org/2000/svg" xmlns:xlink="http://www.w3.org/1999/xlink" x="0px" y="0px"
	 viewBox="0 0 71 19" style="enable-background:new 0 0 71 19;" xml:space="preserve">
<style type="text/css">
	.st0{opacity:0.5;fill:#FF7D9C;}
	.st1{opacity:0.5;fill:#F9587B;}
	.st2{opacity:0.5;fill:#BA7FBA;}
	.st3{opacity:0.5;fill:#81C2E2;}
	.st4{display:none;}
	.st5{display:inline;}
	.st6{fill:#FFFFFF;}
</style>
<g id="Layer_1">
	<g>
		<g>
			<path class="st0" d="M67.4,0.23c0.98,1.53,1.19,3.49,0.39,5.27c-0.94,2.1-3.03,3.37-5.26,3.44c-0.98-1.53-1.19-3.49-0.39-5.27
				C63.09,1.57,65.18,0.3,67.4,0.23z"/>
			<path class="st1" d="M69.79,3.45c0.23,1.61-0.34,3.29-1.67,4.47c-1.57,1.4-3.77,1.71-5.62,0.99c-0.23-1.61,0.34-3.29,1.67-4.47
				C65.73,3.05,67.93,2.73,69.79,3.45z"/>
			<path class="st2" d="M70.83,9.51c-0.87,1.19-2.31,1.97-3.94,1.97c-1.92,0-3.58-1.09-4.35-2.66c0.87-1.19,2.31-1.97,3.94-1.97
				C68.4,6.85,70.06,7.94,70.83,9.51z"/>
			<path class="st3" d="M67.28,12.34c-1.01,0.39-2.2,0.32-3.18-0.3c-1.16-0.73-1.72-2.01-1.54-3.25c1.01-0.39,2.2-0.32,3.18,0.3
				C66.9,9.82,67.45,11.1,67.28,12.34z"/>
		</g>
		<g>
			<path d="M9.95,6.97l-1.37,7.76c-0.23,1.32-0.75,2.33-1.57,3.01c-0.81,0.69-1.85,1.03-3.1,1.03c-1.17,0-2.08-0.28-2.74-0.85
				c-0.66-0.57-0.99-1.39-0.99-2.48c0-0.33,0.03-0.68,0.1-1.06h3.22c-0.03,0.21-0.05,0.4-0.05,0.56c0,0.61,0.27,0.91,0.83,0.91
				c0.59,0,0.95-0.37,1.07-1.12l1.37-7.76H9.95z"/>
			<path d="M14.85,6.97l-1.17,6.67c-0.04,0.31-0.07,0.52-0.07,0.63c0,0.46,0.12,0.82,0.36,1.07c0.24,0.25,0.61,0.37,1.11,0.37
				c0.59,0,1.07-0.18,1.44-0.54c0.36-0.36,0.61-0.87,0.73-1.52l0.89-5.07c0.16-0.93,0.97-1.6,1.91-1.6h1.61l-1.17,6.67
				c-0.2,1.1-0.59,2.04-1.17,2.81c-0.58,0.77-1.29,1.35-2.13,1.74c-0.84,0.39-1.74,0.59-2.71,0.59c-1.28,0-2.29-0.33-3.03-1
				c-0.74-0.67-1.11-1.63-1.11-2.88c0-0.42,0.04-0.84,0.12-1.25l1.17-6.67H14.85z"/>
			<path d="M32.1,18.66h-3.25l-3.15-6.52l-1.14,6.52h-3.25l2.05-11.67h3.25l3.15,6.6l1.14-6.6h3.25L32.1,18.66z"/>
			<path d="M46.4,6.97l-2.05,11.69h-3.24l0.83-4.72h-3.96l-0.83,4.72H33.9l2.05-11.69h3.25l-0.76,4.38h3.96l0.76-4.38H46.4z"/>
			<path d="M51.01,9.56l-0.35,1.93h3.8l-0.45,2.46h-3.78l-0.36,2.11h4.28l-0.46,2.59h-7.53L48.2,6.97h7.53l0,0
				c-0.26,1.5-1.56,2.59-3.08,2.59H51.01z"/>
			<path d="M60.02,9.56l-0.35,1.93h3.8l-0.45,2.46h-3.78l-0.36,2.11h4.28l-0.46,2.59h-5.33c-1.15,0-2.02-1.04-1.82-2.17l1.67-9.52
				h4.9c1.37,0,2.42,1.24,2.18,2.59v0H60.02z"/>
		</g>
	</g>
</g>
<g id="Layer_2" class="st4">
	<g class="st5">
		<g>
			<path class="st0" d="M67.4,0.23c0.98,1.53,1.19,3.49,0.39,5.27c-0.94,2.1-3.03,3.37-5.26,3.44c-0.98-1.53-1.19-3.49-0.39-5.27
				C63.09,1.57,65.18,0.3,67.4,0.23z"/>
			<path class="st1" d="M69.79,3.45c0.23,1.61-0.34,3.29-1.67,4.47c-1.57,1.4-3.77,1.71-5.62,0.99c-0.23-1.61,0.34-3.29,1.67-4.47
				C65.73,3.05,67.93,2.73,69.79,3.45z"/>
			<path class="st2" d="M70.83,9.51c-0.87,1.19-2.31,1.97-3.94,1.97c-1.92,0-3.58-1.09-4.35-2.66c0.87-1.19,2.31-1.97,3.94-1.97
				C68.4,6.85,70.06,7.94,70.83,9.51z"/>
			<path class="st3" d="M67.28,12.34c-1.01,0.39-2.2,0.32-3.18-0.3c-1.16-0.73-1.72-2.01-1.54-3.25c1.01-0.39,2.2-0.32,3.18,0.3
				C66.9,9.82,67.45,11.1,67.28,12.34z"/>
		</g>
		<g>
			<path class="st6" d="M9.95,6.97l-1.37,7.76c-0.23,1.32-0.75,2.33-1.57,3.01c-0.81,0.69-1.85,1.03-3.1,1.03
				c-1.17,0-2.08-0.28-2.74-0.85c-0.66-0.57-0.99-1.39-0.99-2.48c0-0.33,0.03-0.68,0.1-1.06h3.22c-0.03,0.21-0.05,0.4-0.05,0.56
				c0,0.61,0.27,0.91,0.83,0.91c0.59,0,0.95-0.37,1.07-1.12l1.37-7.76H9.95z"/>
			<path class="st6" d="M14.85,6.97l-1.17,6.67c-0.04,0.31-0.07,0.52-0.07,0.63c0,0.46,0.12,0.82,0.36,1.07
				c0.24,0.25,0.61,0.37,1.11,0.37c0.59,0,1.07-0.18,1.44-0.54c0.36-0.36,0.61-0.87,0.73-1.52l0.89-5.07
				c0.16-0.93,0.97-1.6,1.91-1.6h1.61l-1.17,6.67c-0.2,1.1-0.59,2.04-1.17,2.81c-0.58,0.77-1.29,1.35-2.13,1.74
				c-0.84,0.39-1.74,0.59-2.71,0.59c-1.28,0-2.29-0.33-3.03-1c-0.74-0.67-1.11-1.63-1.11-2.88c0-0.42,0.04-0.84,0.12-1.25l1.17-6.67
				H14.85z"/>
			<path class="st6" d="M32.1,18.66h-3.25l-3.15-6.52l-1.14,6.52h-3.25l2.05-11.67h3.25l3.15,6.6l1.14-6.6h3.25L32.1,18.66z"/>
			<path class="st6" d="M46.4,6.97l-2.05,11.69h-3.24l0.83-4.72h-3.96l-0.83,4.72H33.9l2.05-11.69h3.25l-0.76,4.38h3.96l0.76-4.38
				H46.4z"/>
			<path class="st6" d="M51.01,9.56l-0.35,1.93h3.8l-0.45,2.46h-3.78l-0.36,2.11h4.28l-0.46,2.59h-7.53L48.2,6.97h7.53l0,0
				c-0.26,1.5-1.56,2.59-3.08,2.59H51.01z"/>
			<path class="st6" d="M60.02,9.56l-0.35,1.93h3.8l-0.45,2.46h-3.78l-0.36,2.11h4.28l-0.46,2.59h-5.33c-1.15,0-2.02-1.04-1.82-2.17
				l1.67-9.52h4.9c1.37,0,2.42,1.24,2.18,2.59v0H60.02z"/>
		</g>
	</g>
</g>
</svg>
