<?xml version="1.0" encoding="utf-8"?>
<!-- Generator: Adobe Illustrator 24.0.3, SVG Export Plug-In . SVG Version: 6.00 Build 0)  -->
<svg version="1.1" id="Layer_1" xmlns="http://www.w3.org/2000/svg" xmlns:xlink="http://www.w3.org/1999/xlink" x="0px" y="0px"
	 viewBox="0 0 94.73 50" style="enable-background:new 0 0 94.73 50;" xml:space="preserve">
<style type="text/css">
	.st0{display:none;opacity:0.3;fill:#3A3839;}
	.st1{display:none;opacity:0.1;fill:#3A3839;}
	.st2{display:none;opacity:0.5;fill:#3A3839;}
	.st3{opacity:0.7;fill:#3A3839;}
</style>
<path class="st0" d="M6.61,22.98c0.58-0.92,4.5-6.92,10.47-8.9c0.94-0.31,1.94-0.43,2.93-0.32c1.34,0.14,3.21,0.66,5.06,2.22
	c0.21,0.18,0.45,0.33,0.7,0.47c1.71,0.92,7.42,3.42,13.62-3.94c0,0,3.21-5.03,22.79,5.88c0,0,0,0,0,0c2.91,1.57,2.94,5.75,0.04,7.36
	l-6.32,3.51c-0.31,0.17-0.63,0.3-0.97,0.39l-29.66,7.8c-0.5,0.13-1.02,0.17-1.53,0.11l-17.16-1.9c-2.43-0.27-4.11-2.54-3.66-4.94
	c0.36-1.94,1.32-4.47,3.52-7.5C6.5,23.16,6.56,23.07,6.61,22.98z"/>
<path class="st1" d="M10.55,24.23c0,0,9.09-10.81,23.32-9.74c0,0,6.21,1.39,12.2-8.02c0,0,5.88-5.67,10.59,15.09
	c0,0,4.39,12.73,0.96,13.37L9.8,38.46C9.8,38.46,0.49,35.35,10.55,24.23z"/>
<path class="st2" d="M1.03,25.19c0,0,18.13-11.24,39.29-6.38c0.21,0.05,0.42,0.06,0.63,0.05c1.33-0.11,6.41-0.73,11.41-4.09
	c0.67-0.45,1.39-0.82,2.16-1.08c2.28-0.78,6.85-1.6,12.74,1.13c8.56,3.96,9.42,11.56,9.42,11.56L36.01,42.63
	c0,0-35.74-7.17-35.63-7.6C0.49,34.61,1.03,25.19,1.03,25.19z"/>
<path class="st3" d="M15.36,20.7c0,0,16.16-12.2,30.49-0.96c10.46,8.19,19.26,2.39,23.26-1.36c2.99-2.79,6.93-4.36,11.02-4.22
	c4.38,0.14,9.46,2.02,12.79,8.68c6.16,12.33-52.3,19.7-65.68,21.21c-1.74,0.2-3.5-0.13-5.05-0.94l-9.38-4.9
	c-5.8-3.03-6.38-11.11-1.06-14.93L15.36,20.7z"/>
</svg>
