<?xml version="1.0" encoding="utf-8"?>
<!-- Generator: Adobe Illustrator 24.0.3, SVG Export Plug-In . SVG Version: 6.00 Build 0)  -->
<svg version="1.1" id="Layer_1" xmlns="http://www.w3.org/2000/svg" xmlns:xlink="http://www.w3.org/1999/xlink" x="0px" y="0px"
	 viewBox="0 0 30 30" style="enable-background:new 0 0 30 30;" xml:space="preserve">
<style type="text/css">
	.st0{fill:url(#SVGID_1_);}
	.st1{fill:url(#SVGID_2_);}
	.st2{fill:#CCCCCC;}
	.st3{fill:url(#SVGID_3_);}
	.st4{fill:url(#SVGID_4_);}
</style>
<g>
	<g>
		<linearGradient id="SVGID_1_" gradientUnits="userSpaceOnUse" x1="3.071" y1="6.0727" x2="27.9269" y2="6.0727">
			<stop  offset="0" style="stop-color:#FFFFFF"/>
			<stop  offset="1" style="stop-color:#000000"/>
		</linearGradient>
		<path class="st0" d="M27.85,10.86c-0.01-0.02-0.62-2.4-2.58-4.75c-1.15-1.38-2.53-2.48-4.11-3.26c-1.97-0.98-4.25-1.48-6.78-1.48
			c-3.97,0-6.81,1.84-8.5,3.38C4.05,6.42,3.15,8.12,3.14,8.14L3.07,8.1c0.01-0.02,0.92-1.72,2.75-3.41c1.7-1.56,4.56-3.41,8.55-3.41
			c2.54,0,4.83,0.5,6.81,1.49c1.59,0.79,2.98,1.9,4.14,3.29c1.97,2.36,2.59,4.76,2.6,4.78L27.85,10.86z"/>
	</g>
	<g>
		<linearGradient id="SVGID_2_" gradientUnits="userSpaceOnUse" x1="2.1547" y1="5.5911" x2="29.0884" y2="5.5911">
			<stop  offset="0" style="stop-color:#FFFFFF"/>
			<stop  offset="1" style="stop-color:#000000"/>
		</linearGradient>
		<path class="st1" d="M28.96,10.98c-0.05,0-0.1-0.03-0.12-0.09c-0.01-0.03-0.87-2.65-3-5.23c-1.25-1.51-2.68-2.72-4.26-3.58
			C19.62,1,17.42,0.45,15.04,0.45c-4.62,0-7.81,1.98-9.68,3.65C3.34,5.91,2.4,7.74,2.39,7.76C2.36,7.82,2.28,7.85,2.22,7.82
			C2.16,7.78,2.14,7.71,2.17,7.65c0.01-0.02,0.97-1.89,3.02-3.72c1.9-1.7,5.15-3.72,9.85-3.72c2.42,0,4.67,0.56,6.68,1.66
			c1.61,0.88,3.06,2.11,4.33,3.65c2.16,2.62,3.03,5.28,3.04,5.3c0.02,0.07-0.01,0.14-0.08,0.16C28.99,10.98,28.98,10.98,28.96,10.98
			z"/>
	</g>
	<g>
		<circle cx="29.42" cy="14.96" r="0.58"/>
	</g>
	<g>
		<circle class="st2" cx="0.58" cy="14.96" r="0.58"/>
	</g>
	<g>
		<linearGradient id="SVGID_3_" gradientUnits="userSpaceOnUse" x1="15.5801" y1="23.8646" x2="28.0111" y2="23.8646">
			<stop  offset="0" style="stop-color:#FFFFFF"/>
			<stop  offset="1" style="stop-color:#000000"/>
		</linearGradient>
		<path class="st3" d="M15.66,28.71c-0.04,0-0.08-0.04-0.08-0.08c0-0.05,0.03-0.08,0.08-0.09c4.85-0.17,7.9-2.73,9.61-4.85
			c1.86-2.3,2.57-4.59,2.58-4.62c0.01-0.04,0.06-0.07,0.1-0.05c0.04,0.01,0.07,0.06,0.05,0.1c-0.01,0.02-0.73,2.34-2.6,4.67
			C23.67,25.94,20.58,28.54,15.66,28.71C15.66,28.71,15.66,28.71,15.66,28.71z"/>
	</g>
	<g>
		<linearGradient id="SVGID_4_" gradientUnits="userSpaceOnUse" x1="7.5414" y1="24.3645" x2="29.0056" y2="24.3645">
			<stop  offset="0" style="stop-color:#FFFFFF"/>
			<stop  offset="1" style="stop-color:#000000"/>
		</linearGradient>
		<path class="st4" d="M14.32,29.8c-0.16,0-0.32,0-0.48-0.01c-3.49-0.08-6.12-2.1-6.23-2.19c-0.07-0.06-0.08-0.16-0.03-0.23
			c0.06-0.07,0.16-0.08,0.23-0.03c0.03,0.02,2.65,2.04,6.03,2.12c2.78,0.06,5.29-0.44,7.46-1.51c1.73-0.85,3.26-2.06,4.52-3.59
			c2.16-2.61,2.85-5.28,2.85-5.31c0.02-0.09,0.11-0.14,0.2-0.12c0.09,0.02,0.14,0.11,0.12,0.2c-0.01,0.03-0.71,2.77-2.92,5.44
			c-1.3,1.57-2.86,2.8-4.63,3.67C19.36,29.28,16.96,29.8,14.32,29.8z"/>
	</g>
</g>
</svg>
