<?xml version="1.0" encoding="utf-8"?>
<!-- Generator: Adobe Illustrator 24.0.3, SVG Export Plug-In . SVG Version: 6.00 Build 0)  -->
<svg version="1.1" id="Layer_1" xmlns="http://www.w3.org/2000/svg" xmlns:xlink="http://www.w3.org/1999/xlink" x="0px" y="0px"
	 viewBox="0 0 30 30" style="enable-background:new 0 0 30 30;" xml:space="preserve">
<style type="text/css">
	.st0{display:none;}
	.st1{display:inline;}
	.st2{fill:url(#SVGID_1_);}
	.st3{fill:url(#SVGID_2_);}
	.st4{fill:url(#SVGID_3_);}
	.st5{fill:url(#SVGID_4_);}
	.st6{fill:url(#SVGID_5_);}
	.st7{fill:url(#SVGID_6_);}
	.st8{display:inline;fill:none;stroke:url(#SVGID_7_);stroke-width:4;stroke-linecap:round;stroke-miterlimit:10;}
	.st9{display:inline;fill:none;stroke:url(#SVGID_8_);stroke-width:4;stroke-linecap:round;stroke-miterlimit:10;}
</style>
<g class="st0">
	<g class="st1">
		<linearGradient id="SVGID_1_" gradientUnits="userSpaceOnUse" x1="2.4395" y1="6.0949" x2="27.8187" y2="6.0949">
			<stop  offset="0" style="stop-color:#FFFFFF"/>
			<stop  offset="1" style="stop-color:#000000"/>
		</linearGradient>
		<path class="st2" d="M27.57,10.92c-0.01-0.02-0.63-2.38-2.61-4.71c-1.16-1.36-2.55-2.45-4.14-3.23c-1.99-0.97-4.29-1.47-6.83-1.47
			c-4,0-6.86,1.82-8.56,3.35C3.58,6.52,2.67,8.21,2.66,8.22L2.44,8.11c0.01-0.02,0.94-1.73,2.81-3.42c1.73-1.56,4.66-3.42,8.74-3.42
			c2.59,0,4.93,0.5,6.95,1.5c1.62,0.8,3.04,1.9,4.22,3.3c2.01,2.37,2.65,4.77,2.65,4.8L27.57,10.92z"/>
	</g>
	<g class="st1">
		<linearGradient id="SVGID_2_" gradientUnits="userSpaceOnUse" x1="1.5" y1="5.6463" x2="29" y2="5.6463">
			<stop  offset="0" style="stop-color:#FFFFFF"/>
			<stop  offset="1" style="stop-color:#000000"/>
		</linearGradient>
		<path class="st3" d="M28.79,11.1c-0.09,0-0.17-0.06-0.2-0.14c-0.01-0.03-0.88-2.62-3.03-5.19c-1.26-1.5-2.7-2.69-4.29-3.55
			c-1.99-1.07-4.21-1.61-6.6-1.61C10,0.61,6.78,2.57,4.9,4.22c-2.04,1.79-2.99,3.61-3,3.62c-0.05,0.1-0.18,0.14-0.28,0.09
			c-0.1-0.05-0.15-0.18-0.09-0.28c0.04-0.08,0.99-1.89,3.09-3.74C6.54,2.22,9.86,0.2,14.66,0.2c2.47,0,4.76,0.56,6.81,1.66
			c1.64,0.88,3.12,2.11,4.42,3.65c2.2,2.62,3.06,5.2,3.1,5.31c0.04,0.11-0.02,0.22-0.14,0.26C28.83,11.09,28.81,11.1,28.79,11.1z"/>
	</g>
	<g class="st1">
		<linearGradient id="SVGID_3_" gradientUnits="userSpaceOnUse" x1="15.1659" y1="23.8526" x2="27.8647" y2="23.8526">
			<stop  offset="0" style="stop-color:#FFFFFF"/>
			<stop  offset="1" style="stop-color:#000000"/>
		</linearGradient>
		<path class="st4" d="M15.29,28.72c-0.07,0-0.12-0.05-0.13-0.12c0-0.07,0.05-0.13,0.12-0.13c4.9-0.17,7.99-2.71,9.72-4.82
			c1.88-2.29,2.6-4.57,2.61-4.59c0.02-0.07,0.09-0.1,0.16-0.08c0.07,0.02,0.1,0.09,0.08,0.15c-0.01,0.02-0.74,2.34-2.65,4.67
			C23.45,25.95,20.3,28.55,15.29,28.72C15.29,28.72,15.29,28.72,15.29,28.72z"/>
	</g>
	<g class="st1">
		<linearGradient id="SVGID_4_" gradientUnits="userSpaceOnUse" x1="7.0085" y1="24.3509" x2="28.8739" y2="24.3509">
			<stop  offset="0" style="stop-color:#FFFFFF"/>
			<stop  offset="1" style="stop-color:#000000"/>
		</linearGradient>
		<path class="st5" d="M13.93,29.8c-0.16,0-0.33,0-0.49-0.01c-3.56-0.08-6.24-2.1-6.35-2.19c-0.09-0.07-0.11-0.2-0.04-0.29
			c0.07-0.09,0.2-0.11,0.3-0.04c0.03,0.02,2.68,2.02,6.1,2.1c2.81,0.06,5.35-0.44,7.54-1.49c1.75-0.84,3.29-2.04,4.58-3.56
			c2.19-2.59,2.89-5.26,2.9-5.28c0.03-0.11,0.14-0.18,0.25-0.15c0.11,0.03,0.18,0.14,0.15,0.25c-0.03,0.11-0.72,2.77-2.97,5.43
			c-1.32,1.57-2.91,2.8-4.72,3.67C19.05,29.28,16.62,29.8,13.93,29.8z"/>
	</g>
</g>
<g>
	<g>
		<linearGradient id="SVGID_5_" gradientUnits="userSpaceOnUse" x1="2.848" y1="24.917" x2="28.5628" y2="24.917">
			<stop  offset="0" style="stop-color:#FFFFFF"/>
			<stop  offset="1" style="stop-color:#000000"/>
		</linearGradient>
		<path class="st6" d="M14.68,30c-4.56,0-8.81-2.03-11.68-5.58c-0.25-0.31-0.2-0.77,0.11-1.02c0.31-0.25,0.77-0.2,1.02,0.11
			c2.59,3.21,6.43,5.05,10.55,5.05c5.46,0,10.36-3.25,12.49-8.28c0.16-0.37,0.58-0.54,0.95-0.38c0.37,0.16,0.54,0.58,0.38,0.95
			C26.15,26.4,20.73,30,14.68,30z"/>
	</g>
	<g>
		<linearGradient id="SVGID_6_" gradientUnits="userSpaceOnUse" x1="0.753" y1="6.1005" x2="29.247" y2="6.1005">
			<stop  offset="0" style="stop-color:#FFFFFF"/>
			<stop  offset="1" style="stop-color:#000000"/>
		</linearGradient>
		<path class="st7" d="M28.52,12.2c-0.32,0-0.62-0.22-0.7-0.55C26.3,5.64,20.9,1.45,14.68,1.45c-5.52,0-10.44,3.3-12.54,8.4
			c-0.15,0.37-0.57,0.55-0.94,0.39C0.83,10.09,0.66,9.66,0.81,9.3C3.13,3.65,8.58,0,14.68,0c6.87,0,12.85,4.65,14.54,11.3
			c0.1,0.39-0.14,0.78-0.52,0.88C28.64,12.19,28.58,12.2,28.52,12.2z"/>
	</g>
</g>
<g class="st0">
	<linearGradient id="SVGID_7_" gradientUnits="userSpaceOnUse" x1="-1.2393" y1="34.4084" x2="137.0479" y2="34.4084">
		<stop  offset="0" style="stop-color:#FFFFFF"/>
		<stop  offset="1" style="stop-color:#000000"/>
	</linearGradient>
	<path class="st8" d="M135.05,10.28c-11.99,28.35-40.07,48.25-72.79,48.25c-24.85,0-47.01-11.47-61.5-29.4"/>
	<linearGradient id="SVGID_8_" gradientUnits="userSpaceOnUse" x1="-12.8312" y1="-69.7111" x2="140.8341" y2="-69.7111">
		<stop  offset="0" style="stop-color:#FFFFFF"/>
		<stop  offset="1" style="stop-color:#000000"/>
	</linearGradient>
	<path class="st9" d="M-10.83-50.51C0.99-79.24,29.26-99.47,62.26-99.47c36.9,0,67.9,25.31,76.58,59.51"/>
</g>
</svg>
