<?xml version="1.0" encoding="utf-8"?>
<!-- Generator: Adobe Illustrator 24.0.3, SVG Export Plug-In . SVG Version: 6.00 Build 0)  -->
<svg version="1.1" id="Layer_1" xmlns="http://www.w3.org/2000/svg" xmlns:xlink="http://www.w3.org/1999/xlink" x="0px" y="0px"
	 viewBox="0 0 24 32" style="enable-background:new 0 0 24 32;" xml:space="preserve">
<style type="text/css">
	.st0{opacity:0.5;fill:#FF7D9C;}
	.st1{opacity:0.5;fill:#F9587B;}
	.st2{opacity:0.5;fill:#BA7FBA;}
	.st3{opacity:0.5;fill:#81C2E2;}
</style>
<g>
	<path class="st0" d="M14.15,0.05c2.64,3.78,3.46,8.75,1.76,13.41c-2.01,5.5-6.96,9.07-12.43,9.57c-2.64-3.78-3.46-8.75-1.76-13.41
		C3.73,4.11,8.68,0.55,14.15,0.05z"/>
	<path class="st1" d="M20.51,7.94c0.8,4.07-0.33,8.46-3.42,11.68c-3.65,3.8-9.03,4.94-13.71,3.37c-0.8-4.07,0.33-8.46,3.42-11.68
		C10.45,7.51,15.83,6.37,20.51,7.94z"/>
	<path class="st2" d="M24,23.29c-1.96,3.18-5.39,5.39-9.4,5.63c-4.73,0.28-8.98-2.25-11.11-6.16c1.96-3.18,5.39-5.39,9.4-5.63
		C17.62,16.85,21.87,19.38,24,23.29z"/>
	<path class="st3" d="M15.69,31.06c-2.43,1.15-5.37,1.14-7.88-0.29c-2.97-1.69-4.54-4.88-4.3-8.08c2.43-1.15,5.37-1.14,7.88,0.29
		C14.36,24.67,15.93,27.87,15.69,31.06z"/>
</g>
</svg>
