<?xml version="1.0" encoding="utf-8"?>
<!-- Generator: Adobe Illustrator 24.0.3, SVG Export Plug-In . SVG Version: 6.00 Build 0)  -->
<svg version="1.1" id="Layer_1" xmlns="http://www.w3.org/2000/svg" xmlns:xlink="http://www.w3.org/1999/xlink" x="0px" y="0px"
	 viewBox="0 0 30 30" style="enable-background:new 0 0 30 30;" xml:space="preserve">
<style type="text/css">
	.st0{display:none;}
	.st1{display:inline;}
	.st2{fill:url(#SVGID_1_);}
	.st3{fill:url(#SVGID_2_);}
	.st4{fill:url(#SVGID_3_);}
	.st5{fill:url(#SVGID_4_);}
	.st6{fill:url(#SVGID_5_);}
	.st7{fill:url(#SVGID_6_);}
	.st8{fill:url(#SVGID_7_);}
	.st9{fill:url(#SVGID_8_);}
</style>
<g class="st0">
	<g class="st1">
		<linearGradient id="SVGID_1_" gradientUnits="userSpaceOnUse" x1="2.4395" y1="6.0949" x2="27.8187" y2="6.0949">
			<stop  offset="0" style="stop-color:#FFFFFF"/>
			<stop  offset="1" style="stop-color:#000000"/>
		</linearGradient>
		<path class="st2" d="M27.57,10.92c-0.01-0.02-0.63-2.38-2.61-4.71c-1.16-1.36-2.55-2.45-4.14-3.23c-1.99-0.97-4.29-1.47-6.83-1.47
			c-4,0-6.86,1.82-8.56,3.35C3.58,6.52,2.67,8.21,2.66,8.22L2.44,8.11c0.01-0.02,0.94-1.73,2.81-3.42c1.73-1.56,4.66-3.42,8.74-3.42
			c2.59,0,4.93,0.5,6.95,1.5c1.62,0.8,3.04,1.9,4.22,3.3c2.01,2.37,2.65,4.77,2.65,4.8L27.57,10.92z"/>
	</g>
	<g class="st1">
		<linearGradient id="SVGID_2_" gradientUnits="userSpaceOnUse" x1="1.5" y1="5.6463" x2="29" y2="5.6463">
			<stop  offset="0" style="stop-color:#FFFFFF"/>
			<stop  offset="1" style="stop-color:#000000"/>
		</linearGradient>
		<path class="st3" d="M28.79,11.1c-0.09,0-0.17-0.06-0.2-0.14c-0.01-0.03-0.88-2.62-3.03-5.19c-1.26-1.5-2.7-2.69-4.29-3.55
			c-1.99-1.07-4.21-1.61-6.6-1.61C10,0.61,6.78,2.57,4.9,4.22c-2.04,1.79-2.99,3.61-3,3.62c-0.05,0.1-0.18,0.14-0.28,0.09
			c-0.1-0.05-0.15-0.18-0.09-0.28c0.04-0.08,0.99-1.89,3.09-3.74C6.54,2.22,9.86,0.2,14.66,0.2c2.47,0,4.76,0.56,6.81,1.66
			c1.64,0.88,3.12,2.11,4.42,3.65c2.2,2.62,3.06,5.2,3.1,5.31c0.04,0.11-0.02,0.22-0.14,0.26C28.83,11.09,28.81,11.1,28.79,11.1z"/>
	</g>
	<g class="st1">
		<linearGradient id="SVGID_3_" gradientUnits="userSpaceOnUse" x1="15.1659" y1="23.8526" x2="27.8647" y2="23.8526">
			<stop  offset="0" style="stop-color:#FFFFFF"/>
			<stop  offset="1" style="stop-color:#000000"/>
		</linearGradient>
		<path class="st4" d="M15.29,28.72c-0.07,0-0.12-0.05-0.13-0.12c0-0.07,0.05-0.13,0.12-0.13c4.9-0.17,7.99-2.71,9.72-4.82
			c1.88-2.29,2.6-4.57,2.61-4.59c0.02-0.07,0.09-0.1,0.16-0.08c0.07,0.02,0.1,0.09,0.08,0.15c-0.01,0.02-0.74,2.34-2.65,4.67
			C23.45,25.95,20.3,28.55,15.29,28.72C15.29,28.72,15.29,28.72,15.29,28.72z"/>
	</g>
	<g class="st1">
		<linearGradient id="SVGID_4_" gradientUnits="userSpaceOnUse" x1="7.0085" y1="24.3509" x2="28.8739" y2="24.3509">
			<stop  offset="0" style="stop-color:#FFFFFF"/>
			<stop  offset="1" style="stop-color:#000000"/>
		</linearGradient>
		<path class="st5" d="M13.93,29.8c-0.16,0-0.33,0-0.49-0.01c-3.56-0.08-6.24-2.1-6.35-2.19c-0.09-0.07-0.11-0.2-0.04-0.29
			c0.07-0.09,0.2-0.11,0.3-0.04c0.03,0.02,2.68,2.02,6.1,2.1c2.81,0.06,5.35-0.44,7.54-1.49c1.75-0.84,3.29-2.04,4.58-3.56
			c2.19-2.59,2.89-5.26,2.9-5.28c0.03-0.11,0.14-0.18,0.25-0.15c0.11,0.03,0.18,0.14,0.15,0.25c-0.03,0.11-0.72,2.77-2.97,5.43
			c-1.32,1.57-2.91,2.8-4.72,3.67C19.05,29.28,16.62,29.8,13.93,29.8z"/>
	</g>
</g>
<g>
	<g>
		<linearGradient id="SVGID_5_" gradientUnits="userSpaceOnUse" x1="1.6158" y1="6.1332" x2="28.1226" y2="6.1332">
			<stop  offset="0" style="stop-color:#FFFFFF"/>
			<stop  offset="1" style="stop-color:#000000"/>
		</linearGradient>
		<path class="st6" d="M27.9,11.09c-0.1,0-0.19-0.06-0.21-0.16c-0.01-0.02-0.65-2.37-2.69-4.68c-1.2-1.35-2.63-2.43-4.27-3.21
			c-2.05-0.97-4.42-1.46-7.04-1.46c-4.11,0-7.06,1.81-8.81,3.32c-1.9,1.65-2.84,3.33-2.85,3.34c-0.06,0.1-0.19,0.14-0.29,0.09
			C1.63,8.29,1.58,8.16,1.64,8.06c0.04-0.07,0.98-1.75,2.93-3.44c1.81-1.57,4.86-3.44,9.12-3.44c2.7,0,5.14,0.51,7.25,1.51
			c1.69,0.8,3.17,1.92,4.41,3.32c2.1,2.38,2.74,4.74,2.77,4.83c0.03,0.11-0.04,0.22-0.16,0.25C27.94,11.09,27.92,11.09,27.9,11.09z"
			/>
	</g>
	<g>
		<linearGradient id="SVGID_6_" gradientUnits="userSpaceOnUse" x1="0.6566" y1="5.6374" x2="29.3434" y2="5.6374">
			<stop  offset="0" style="stop-color:#FFFFFF"/>
			<stop  offset="1" style="stop-color:#000000"/>
		</linearGradient>
		<path class="st7" d="M29.04,11.17c-0.13,0-0.25-0.08-0.29-0.2c-0.01-0.03-0.91-2.62-3.13-5.17c-1.3-1.49-2.79-2.68-4.43-3.53
			c-2.04-1.06-4.33-1.6-6.8-1.6c-4.8,0-8.12,1.95-10.06,3.59c-2.11,1.78-3.09,3.59-3.1,3.61C1.16,8.02,0.97,8.07,0.82,8
			S0.61,7.76,0.69,7.61c0.04-0.08,1.03-1.91,3.22-3.76C5.93,2.14,9.38,0.1,14.39,0.1c2.58,0,4.97,0.56,7.11,1.68
			c1.71,0.89,3.26,2.13,4.61,3.68c2.29,2.64,3.19,5.23,3.23,5.34c0.05,0.15-0.04,0.31-0.2,0.36C29.1,11.17,29.07,11.17,29.04,11.17z
			"/>
	</g>
	<g>
		<linearGradient id="SVGID_7_" gradientUnits="userSpaceOnUse" x1="14.8256" y1="23.8611" x2="28.1663" y2="23.8611">
			<stop  offset="0" style="stop-color:#FFFFFF"/>
			<stop  offset="1" style="stop-color:#000000"/>
		</linearGradient>
		<path class="st8" d="M15.04,28.82c-0.12,0-0.21-0.09-0.22-0.2c0-0.11,0.09-0.21,0.21-0.21c2.23-0.07,4.29-0.61,6.11-1.6
			c1.46-0.79,2.77-1.87,3.91-3.2c1.93-2.28,2.68-4.54,2.69-4.56c0.04-0.11,0.16-0.17,0.27-0.14c0.12,0.03,0.18,0.15,0.14,0.26
			c-0.03,0.1-0.78,2.36-2.76,4.7C23.55,26.03,20.27,28.65,15.04,28.82C15.05,28.82,15.05,28.82,15.04,28.82z"/>
	</g>
	<g>
		<linearGradient id="SVGID_8_" gradientUnits="userSpaceOnUse" x1="6.3678" y1="24.3598" x2="29.2126" y2="24.3598">
			<stop  offset="0" style="stop-color:#FFFFFF"/>
			<stop  offset="1" style="stop-color:#000000"/>
		</linearGradient>
		<path class="st9" d="M13.63,29.9c-0.17,0-0.34,0-0.51-0.01c-3.72-0.08-6.52-2.12-6.63-2.21c-0.13-0.1-0.16-0.28-0.05-0.41
			c0.1-0.13,0.3-0.15,0.43-0.05c0.03,0.02,2.76,2.01,6.27,2.09c2.9,0.06,5.51-0.43,7.77-1.48c1.81-0.84,3.39-2.03,4.72-3.53
			c2.26-2.58,2.98-5.23,2.99-5.26c0.04-0.15,0.21-0.25,0.37-0.21c0.16,0.04,0.26,0.2,0.22,0.35c-0.03,0.11-0.75,2.79-3.1,5.47
			c-1.38,1.58-3.03,2.82-4.92,3.7C18.97,29.38,16.43,29.9,13.63,29.9z"/>
	</g>
</g>
</svg>
