<?xml version="1.0" encoding="utf-8"?>
<!-- Generator: Adobe Illustrator 24.0.3, SVG Export Plug-In . SVG Version: 6.00 Build 0)  -->
<svg version="1.1" id="Layer_1" xmlns="http://www.w3.org/2000/svg" xmlns:xlink="http://www.w3.org/1999/xlink" x="0px" y="0px"
	 viewBox="0 0 62 17" style="enable-background:new 0 0 62 17;" xml:space="preserve">
<style type="text/css">
	.st0{opacity:0.5;fill:#FF7D9C;}
	.st1{opacity:0.5;fill:#F9587B;}
	.st2{opacity:0.5;fill:#BA7FBA;}
	.st3{opacity:0.5;fill:#81C2E2;}
	.st4{display:none;}
	.st5{display:inline;}
	.st6{fill:#FFFFFF;}
</style>
<g>
	<g>
		<path class="st0" d="M58.05,0.71c0.79,1,1.09,2.36,0.69,3.67c-0.47,1.55-1.78,2.6-3.27,2.83c-0.79-1-1.09-2.36-0.69-3.67
			C55.24,2,56.55,0.94,58.05,0.71z"/>
		<path class="st1" d="M59.92,2.79c0.28,1.11,0.04,2.34-0.76,3.27c-0.95,1.1-2.41,1.5-3.72,1.14c-0.28-1.11-0.04-2.34,0.76-3.27
			C57.14,2.83,58.61,2.43,59.92,2.79z"/>
		<path class="st2" d="M61.12,6.96c-0.49,0.91-1.4,1.57-2.5,1.7c-1.3,0.15-2.51-0.48-3.16-1.52c0.49-0.91,1.4-1.57,2.5-1.7
			C59.26,5.29,60.47,5.92,61.12,6.96z"/>
		<path class="st3" d="M58.95,9.23c-0.65,0.36-1.46,0.4-2.18,0.04C55.93,8.86,55.45,8,55.47,7.12c0.65-0.36,1.46-0.4,2.18-0.04
			C58.49,7.49,58.97,8.35,58.95,9.23z"/>
	</g>
	<g>
		<path d="M9.29,6.13L8.11,12.8c-0.2,1.14-0.65,2-1.35,2.59c-0.7,0.59-1.59,0.89-2.67,0.89c-1,0-1.79-0.24-2.36-0.73
			c-0.57-0.49-0.85-1.2-0.85-2.14c0-0.28,0.03-0.59,0.09-0.91h2.77c-0.03,0.18-0.04,0.34-0.04,0.48c0,0.52,0.24,0.78,0.71,0.78
			c0.51,0,0.82-0.32,0.92-0.97l1.18-6.68H9.29z"/>
		<path d="M13.51,6.13l-1.01,5.74c-0.04,0.27-0.06,0.45-0.06,0.54c0,0.4,0.1,0.7,0.31,0.92c0.21,0.21,0.53,0.32,0.95,0.32
			c0.51,0,0.92-0.16,1.24-0.47c0.31-0.31,0.52-0.75,0.63-1.31l0.77-4.36c0.14-0.8,0.83-1.38,1.64-1.38h1.39l-1.01,5.74
			c-0.17,0.95-0.51,1.75-1.01,2.42c-0.5,0.66-1.11,1.16-1.83,1.5c-0.72,0.34-1.5,0.5-2.33,0.5c-1.1,0-1.97-0.29-2.61-0.86
			c-0.64-0.57-0.96-1.4-0.96-2.48c0-0.36,0.03-0.72,0.1-1.08l1.01-5.74H13.51z"/>
		<path d="M28.36,16.19h-2.8l-2.71-5.61l-0.98,5.61h-2.8l1.76-10.05h2.8l2.71,5.68l0.98-5.68h2.8L28.36,16.19z"/>
		<path d="M40.66,6.13L38.9,16.19h-2.78l0.71-4.06h-3.41l-0.71,4.06h-2.8l1.76-10.06h2.8l-0.65,3.77h3.41l0.3-1.73
			c0.2-1.18,1.22-2.03,2.42-2.03H40.66z"/>
		<path d="M44.63,8.36l-0.3,1.66h3.27l-0.38,2.12h-3.25l-0.31,1.82h3.68l-0.4,2.23h-6.48l1.76-10.06h6.48l0,0
			c-0.22,1.29-1.34,2.23-2.65,2.23H44.63z"/>
		<path d="M52.38,8.36l-0.3,1.66h3.27l-0.38,2.12h-3.25l-0.31,1.82h3.68l-0.4,2.23H50.1c-0.99,0-1.74-0.89-1.57-1.87l1.44-8.19h4.22
			c1.18,0,2.08,1.07,1.88,2.23v0H52.38z"/>
	</g>
</g>
<g class="st4">
	<g class="st5">
		<path class="st0" d="M58.05,0.71c0.79,1,1.09,2.36,0.69,3.67c-0.47,1.55-1.78,2.6-3.27,2.83c-0.79-1-1.09-2.36-0.69-3.67
			C55.24,2,56.55,0.94,58.05,0.71z"/>
		<path class="st1" d="M59.92,2.79c0.28,1.11,0.04,2.34-0.76,3.27c-0.95,1.1-2.41,1.5-3.72,1.14c-0.28-1.11-0.04-2.34,0.76-3.27
			C57.14,2.83,58.61,2.43,59.92,2.79z"/>
		<path class="st2" d="M61.12,6.96c-0.49,0.91-1.4,1.57-2.5,1.7c-1.3,0.15-2.51-0.48-3.16-1.52c0.49-0.91,1.4-1.57,2.5-1.7
			C59.26,5.29,60.47,5.92,61.12,6.96z"/>
		<path class="st3" d="M58.95,9.23c-0.65,0.36-1.46,0.4-2.18,0.04C55.93,8.86,55.45,8,55.47,7.12c0.65-0.36,1.46-0.4,2.18-0.04
			C58.49,7.49,58.97,8.35,58.95,9.23z"/>
	</g>
	<g class="st5">
		<path class="st6" d="M9.29,6.13L8.11,12.8c-0.2,1.14-0.65,2-1.35,2.59c-0.7,0.59-1.59,0.89-2.67,0.89c-1,0-1.79-0.24-2.36-0.73
			c-0.57-0.49-0.85-1.2-0.85-2.14c0-0.28,0.03-0.59,0.09-0.91h2.77c-0.03,0.18-0.04,0.34-0.04,0.48c0,0.52,0.24,0.78,0.71,0.78
			c0.51,0,0.82-0.32,0.92-0.97l1.18-6.68H9.29z"/>
		<path class="st6" d="M13.51,6.13l-1.01,5.74c-0.04,0.27-0.06,0.45-0.06,0.54c0,0.4,0.1,0.7,0.31,0.92
			c0.21,0.21,0.53,0.32,0.95,0.32c0.51,0,0.92-0.16,1.24-0.47c0.31-0.31,0.52-0.75,0.63-1.31l0.77-4.36
			c0.14-0.8,0.83-1.38,1.64-1.38h1.39l-1.01,5.74c-0.17,0.95-0.51,1.75-1.01,2.42c-0.5,0.66-1.11,1.16-1.83,1.5
			c-0.72,0.34-1.5,0.5-2.33,0.5c-1.1,0-1.97-0.29-2.61-0.86c-0.64-0.57-0.96-1.4-0.96-2.48c0-0.36,0.03-0.72,0.1-1.08l1.01-5.74
			H13.51z"/>
		<path class="st6" d="M28.36,16.19h-2.8l-2.71-5.61l-0.98,5.61h-2.8l1.76-10.05h2.8l2.71,5.68l0.98-5.68h2.8L28.36,16.19z"/>
		<path class="st6" d="M40.66,6.13L38.9,16.19h-2.78l0.71-4.06h-3.41l-0.71,4.06h-2.8l1.76-10.06h2.8l-0.65,3.77h3.41l0.3-1.73
			c0.2-1.18,1.22-2.03,2.42-2.03H40.66z"/>
		<path class="st6" d="M44.63,8.36l-0.3,1.66h3.27l-0.38,2.12h-3.25l-0.31,1.82h3.68l-0.4,2.23h-6.48l1.76-10.06h6.48l0,0
			c-0.22,1.29-1.34,2.23-2.65,2.23H44.63z"/>
		<path class="st6" d="M52.38,8.36l-0.3,1.66h3.27l-0.38,2.12h-3.25l-0.31,1.82h3.68l-0.4,2.23H50.1c-0.99,0-1.74-0.89-1.57-1.87
			l1.44-8.19h4.22c1.18,0,2.08,1.07,1.88,2.23v0H52.38z"/>
	</g>
</g>
</svg>
